<svg xmlns="http://www.w3.org/2000/svg" viewBox="0 0 171.21 123.23"><defs><style>.cls-1{fill:#ede70e;}.cls-2{fill:#84c1e9;}</style></defs><g id="Layer_2" data-name="Layer 2"><g id="new"><g id="sharing_U" data-name="sharing U"><path class="cls-1" d="M157.18,38.88a29,29,0,0,0-58.06,0,29,29,0,0,0-58.06,0s-.78,2.59,1.3,8.61a28.45,28.45,0,0,0,2,4.77c5.48,11.62,19.5,31.62,54.8,63,0,0,41.95-34.63,54.53-62.48A28.87,28.87,0,0,0,157.18,38.88Z"/><path class="cls-2" d="M146.15,32.42a10.19,10.19,0,1,0-20,4.19,10.2,10.2,0,0,0-20,4.19,5.59,5.59,0,0,0,1.07,2.87,10.32,10.32,0,0,0,1,1.49c2.72,3.6,9,9.46,23.38,17.69,0,0,11.91-14.93,14.23-25.4A10.27,10.27,0,0,0,146.15,32.42Z"/><path class="cls-1" d="M170.46,107.47a9.55,9.55,0,0,0-17.61-7.4,9.55,9.55,0,0,0-17.6-7.4,5.24,5.24,0,0,0-.71,2.78,9.66,9.66,0,0,0,0,1.7c.18,4.22,1.88,12.07,8.59,26.08,0,0,17.14-5.16,24.5-12A9.49,9.49,0,0,0,170.46,107.47Z"/><path class="cls-1" d="M68.48,105.15a5.06,5.06,0,0,0-10.07-1,5.06,5.06,0,0,0-10.08-.94,2.87,2.87,0,0,0,.09,1.52,5.31,5.31,0,0,0,.26.86c.76,2.1,2.87,5.8,8.49,11.81,0,0,7.84-5.33,10.47-10A5,5,0,0,0,68.48,105.15Z"/><path class="cls-1" d="M35.89,5.79a9.55,9.55,0,1,0-17.56,7.52A9.55,9.55,0,0,0,.77,20.83a5.22,5.22,0,0,0,1.51,2.43,9.71,9.71,0,0,0,1.21,1.19c3.16,2.81,10,7,24.73,12,0,0,8.2-15.9,8.4-25.95A9.61,9.61,0,0,0,35.89,5.79Z"/></g></g></g></svg>